<mxfile host="app.diagrams.net" modified="2022-12-09T15:02:50.778Z" agent="5.0 (Windows NT 10.0; Win64; x64) AppleWebKit/537.36 (KHTML, like Gecko) Chrome/107.0.0.0 Safari/537.36" etag="E6ytgHe5DoDxrSuFqXWD" version="20.6.0" type="github">
  <diagram id="1PG_mUHAkVhkRR0OiA2S" name="Page-1">
    <mxGraphModel dx="1422" dy="851" grid="0" gridSize="10" guides="1" tooltips="1" connect="1" arrows="1" fold="1" page="1" pageScale="1" pageWidth="850" pageHeight="1100" math="0" shadow="0">
      <root>
        <mxCell id="0" />
        <mxCell id="1" parent="0" />
        <mxCell id="N7lQgFKjf1Fr5pA0-zuc-1" value="&lt;font style=&quot;font-size: 14px;&quot;&gt;&lt;b&gt;Units&lt;/b&gt;&lt;/font&gt;" style="text;html=1;align=center;verticalAlign=middle;resizable=0;points=[];autosize=1;strokeColor=#82b366;fillColor=#d5e8d4;strokeWidth=4;" parent="1" vertex="1">
          <mxGeometry x="136" y="423.6" width="60" height="30" as="geometry" />
        </mxCell>
        <mxCell id="N7lQgFKjf1Fr5pA0-zuc-3" value="&lt;b&gt;&lt;font style=&quot;font-size: 20px;&quot;&gt;Automated Framework for Finance Volume Workstream&lt;/font&gt;&lt;/b&gt;" style="text;html=1;align=center;verticalAlign=middle;resizable=0;points=[];autosize=1;strokeColor=none;fillColor=none;" parent="1" vertex="1">
          <mxGeometry x="109" y="40" width="550" height="40" as="geometry" />
        </mxCell>
        <mxCell id="N7lQgFKjf1Fr5pA0-zuc-13" style="edgeStyle=orthogonalEdgeStyle;rounded=0;orthogonalLoop=1;jettySize=auto;html=1;entryX=0;entryY=0.761;entryDx=0;entryDy=0;entryPerimeter=0;fontSize=14;" parent="1" source="N7lQgFKjf1Fr5pA0-zuc-4" target="N7lQgFKjf1Fr5pA0-zuc-12" edge="1">
          <mxGeometry relative="1" as="geometry">
            <Array as="points">
              <mxPoint x="256" y="513" />
              <mxPoint x="256" y="731" />
            </Array>
          </mxGeometry>
        </mxCell>
        <mxCell id="N7lQgFKjf1Fr5pA0-zuc-17" value="Fetch the data from" style="edgeLabel;html=1;align=center;verticalAlign=middle;resizable=0;points=[];fontSize=14;" parent="N7lQgFKjf1Fr5pA0-zuc-13" vertex="1" connectable="0">
          <mxGeometry x="-0.2665" y="1" relative="1" as="geometry">
            <mxPoint as="offset" />
          </mxGeometry>
        </mxCell>
        <mxCell id="N7lQgFKjf1Fr5pA0-zuc-4" value="SQL Server" style="aspect=fixed;html=1;points=[];align=center;image;fontSize=12;image=img/lib/azure2/general/Production_Ready_Database.svg;strokeWidth=4;" parent="1" vertex="1">
          <mxGeometry x="136" y="481" width="48" height="64" as="geometry" />
        </mxCell>
        <mxCell id="N7lQgFKjf1Fr5pA0-zuc-5" value="Excel data&lt;br&gt;(Editable)" style="shape=image;html=1;verticalAlign=top;verticalLabelPosition=bottom;labelBackgroundColor=#ffffff;imageAspect=0;aspect=fixed;image=https://cdn3.iconfinder.com/data/icons/document-icons-2/30/647702-excel-128.png;strokeWidth=4;fontSize=14;" parent="1" vertex="1">
          <mxGeometry x="393.6" y="481" width="50" height="50" as="geometry" />
        </mxCell>
        <mxCell id="N7lQgFKjf1Fr5pA0-zuc-14" style="edgeStyle=orthogonalEdgeStyle;rounded=0;orthogonalLoop=1;jettySize=auto;html=1;entryX=1.004;entryY=0.667;entryDx=0;entryDy=0;entryPerimeter=0;fontSize=14;" parent="1" source="N7lQgFKjf1Fr5pA0-zuc-6" target="N7lQgFKjf1Fr5pA0-zuc-12" edge="1">
          <mxGeometry relative="1" as="geometry">
            <Array as="points">
              <mxPoint x="576" y="513" />
              <mxPoint x="576" y="725" />
            </Array>
          </mxGeometry>
        </mxCell>
        <mxCell id="N7lQgFKjf1Fr5pA0-zuc-16" value="Fetch the data from" style="edgeLabel;html=1;align=center;verticalAlign=middle;resizable=0;points=[];fontSize=14;" parent="N7lQgFKjf1Fr5pA0-zuc-14" vertex="1" connectable="0">
          <mxGeometry x="-0.216" y="-1" relative="1" as="geometry">
            <mxPoint as="offset" />
          </mxGeometry>
        </mxCell>
        <mxCell id="N7lQgFKjf1Fr5pA0-zuc-6" value="SQL Server" style="aspect=fixed;html=1;points=[];align=center;image;fontSize=12;image=img/lib/azure2/general/Production_Ready_Database.svg;strokeWidth=4;" parent="1" vertex="1">
          <mxGeometry x="656" y="481" width="48" height="64" as="geometry" />
        </mxCell>
        <mxCell id="N7lQgFKjf1Fr5pA0-zuc-33" style="edgeStyle=orthogonalEdgeStyle;rounded=0;orthogonalLoop=1;jettySize=auto;html=1;fontSize=14;" parent="1" source="N7lQgFKjf1Fr5pA0-zuc-7" edge="1">
          <mxGeometry relative="1" as="geometry">
            <mxPoint x="416" y="240" as="targetPoint" />
          </mxGeometry>
        </mxCell>
        <mxCell id="N7lQgFKjf1Fr5pA0-zuc-34" value="Pull the excel whenever&amp;nbsp;&lt;br&gt;updated with new data" style="edgeLabel;html=1;align=center;verticalAlign=middle;resizable=0;points=[];fontSize=14;" parent="N7lQgFKjf1Fr5pA0-zuc-33" vertex="1" connectable="0">
          <mxGeometry x="-0.2766" y="1" relative="1" as="geometry">
            <mxPoint as="offset" />
          </mxGeometry>
        </mxCell>
        <mxCell id="N7lQgFKjf1Fr5pA0-zuc-7" value="" style="shadow=0;dashed=0;html=1;strokeColor=none;fillColor=#EF8F21;labelPosition=center;verticalLabelPosition=bottom;verticalAlign=top;align=center;outlineConnect=0;shape=mxgraph.veeam.ms_sharepoint;strokeWidth=4;fontSize=14;" parent="1" vertex="1">
          <mxGeometry x="393.6" y="410" width="44.8" height="51" as="geometry" />
        </mxCell>
        <mxCell id="N7lQgFKjf1Fr5pA0-zuc-8" value="" style="endArrow=none;dashed=1;html=1;dashPattern=1 3;strokeWidth=2;rounded=0;fontSize=14;startArrow=none;" parent="1" edge="1">
          <mxGeometry width="50" height="50" relative="1" as="geometry">
            <mxPoint x="336" y="571" as="sourcePoint" />
            <mxPoint x="336" y="411" as="targetPoint" />
            <Array as="points" />
          </mxGeometry>
        </mxCell>
        <mxCell id="N7lQgFKjf1Fr5pA0-zuc-15" style="edgeStyle=orthogonalEdgeStyle;rounded=0;orthogonalLoop=1;jettySize=auto;html=1;entryX=0.397;entryY=0.015;entryDx=0;entryDy=0;entryPerimeter=0;fontSize=14;" parent="1" source="N7lQgFKjf1Fr5pA0-zuc-9" target="N7lQgFKjf1Fr5pA0-zuc-12" edge="1">
          <mxGeometry relative="1" as="geometry" />
        </mxCell>
        <mxCell id="N7lQgFKjf1Fr5pA0-zuc-18" value="Fetch the data from" style="edgeLabel;html=1;align=center;verticalAlign=middle;resizable=0;points=[];fontSize=14;" parent="N7lQgFKjf1Fr5pA0-zuc-15" vertex="1" connectable="0">
          <mxGeometry x="-0.2339" y="1" relative="1" as="geometry">
            <mxPoint as="offset" />
          </mxGeometry>
        </mxCell>
        <mxCell id="N7lQgFKjf1Fr5pA0-zuc-9" value="Common SharePoint Site" style="text;html=1;align=center;verticalAlign=middle;resizable=0;points=[];autosize=1;strokeColor=none;fillColor=none;fontSize=14;" parent="1" vertex="1">
          <mxGeometry x="328.6" y="571" width="180" height="30" as="geometry" />
        </mxCell>
        <mxCell id="N7lQgFKjf1Fr5pA0-zuc-10" value="" style="endArrow=none;dashed=1;html=1;dashPattern=1 3;strokeWidth=2;rounded=0;fontSize=14;" parent="1" target="N7lQgFKjf1Fr5pA0-zuc-9" edge="1">
          <mxGeometry width="50" height="50" relative="1" as="geometry">
            <mxPoint x="336" y="411" as="sourcePoint" />
            <mxPoint x="336" y="411" as="targetPoint" />
            <Array as="points">
              <mxPoint x="496" y="411" />
              <mxPoint x="496" y="571" />
              <mxPoint x="336" y="571" />
            </Array>
          </mxGeometry>
        </mxCell>
        <mxCell id="N7lQgFKjf1Fr5pA0-zuc-11" value="&lt;font style=&quot;font-size: 14px;&quot;&gt;&lt;b&gt;SVP&lt;/b&gt;&lt;/font&gt;" style="text;html=1;align=center;verticalAlign=middle;resizable=0;points=[];autosize=1;strokeColor=#82b366;fillColor=#d5e8d4;strokeWidth=4;" parent="1" vertex="1">
          <mxGeometry x="631" y="423.6" width="50" height="30" as="geometry" />
        </mxCell>
        <mxCell id="N7lQgFKjf1Fr5pA0-zuc-20" style="edgeStyle=orthogonalEdgeStyle;rounded=0;orthogonalLoop=1;jettySize=auto;html=1;entryX=0.438;entryY=-0.051;entryDx=0;entryDy=0;entryPerimeter=0;fontSize=14;" parent="1" source="N7lQgFKjf1Fr5pA0-zuc-12" target="N7lQgFKjf1Fr5pA0-zuc-19" edge="1">
          <mxGeometry relative="1" as="geometry">
            <Array as="points">
              <mxPoint x="425" y="781" />
              <mxPoint x="215" y="781" />
            </Array>
          </mxGeometry>
        </mxCell>
        <mxCell id="N7lQgFKjf1Fr5pA0-zuc-21" value="Output from Data Bricks" style="edgeLabel;html=1;align=center;verticalAlign=middle;resizable=0;points=[];fontSize=14;" parent="N7lQgFKjf1Fr5pA0-zuc-20" vertex="1" connectable="0">
          <mxGeometry x="0.6279" y="2" relative="1" as="geometry">
            <mxPoint as="offset" />
          </mxGeometry>
        </mxCell>
        <mxCell id="N7lQgFKjf1Fr5pA0-zuc-12" value="Data Bricks" style="aspect=fixed;html=1;points=[];align=center;image;fontSize=12;image=img/lib/azure2/analytics/Azure_Databricks.svg;labelBorderColor=none;strokeColor=#82B366;strokeWidth=4;" parent="1" vertex="1">
          <mxGeometry x="396" y="681" width="58" height="65.73" as="geometry" />
        </mxCell>
        <mxCell id="N7lQgFKjf1Fr5pA0-zuc-30" style="edgeStyle=orthogonalEdgeStyle;rounded=0;orthogonalLoop=1;jettySize=auto;html=1;fontSize=14;" parent="1" source="N7lQgFKjf1Fr5pA0-zuc-19" target="N7lQgFKjf1Fr5pA0-zuc-25" edge="1">
          <mxGeometry relative="1" as="geometry" />
        </mxCell>
        <mxCell id="N7lQgFKjf1Fr5pA0-zuc-31" value="Pipeline for flow&lt;br&gt;&amp;nbsp;of data" style="edgeLabel;html=1;align=center;verticalAlign=middle;resizable=0;points=[];fontSize=14;" parent="N7lQgFKjf1Fr5pA0-zuc-30" vertex="1" connectable="0">
          <mxGeometry x="0.2479" y="-2" relative="1" as="geometry">
            <mxPoint x="-31" y="-2" as="offset" />
          </mxGeometry>
        </mxCell>
        <mxCell id="N7lQgFKjf1Fr5pA0-zuc-19" value="Cloud Storage account" style="aspect=fixed;html=1;points=[];align=center;image;fontSize=12;image=img/lib/azure2/general/Blob_Block.svg;labelBorderColor=none;strokeColor=#82B366;strokeWidth=4;" parent="1" vertex="1">
          <mxGeometry x="176" y="861" width="88" height="70.4" as="geometry" />
        </mxCell>
        <mxCell id="kjZ1DMuhEnThYI0eOgYI-2" style="edgeStyle=orthogonalEdgeStyle;rounded=0;orthogonalLoop=1;jettySize=auto;html=1;" parent="1" source="N7lQgFKjf1Fr5pA0-zuc-22" edge="1">
          <mxGeometry relative="1" as="geometry">
            <mxPoint x="728.0000000000002" y="743.3333587646484" as="targetPoint" />
          </mxGeometry>
        </mxCell>
        <mxCell id="kjZ1DMuhEnThYI0eOgYI-3" value="Power the&amp;nbsp;&lt;br&gt;Dashboard" style="edgeLabel;html=1;align=center;verticalAlign=middle;resizable=0;points=[];" parent="kjZ1DMuhEnThYI0eOgYI-2" vertex="1" connectable="0">
          <mxGeometry x="0.3011" relative="1" as="geometry">
            <mxPoint as="offset" />
          </mxGeometry>
        </mxCell>
        <mxCell id="N7lQgFKjf1Fr5pA0-zuc-22" value="Daily production report&lt;br&gt;SQL Server" style="aspect=fixed;html=1;points=[];align=center;image;fontSize=12;image=img/lib/azure2/general/Production_Ready_Database.svg;strokeWidth=4;" parent="1" vertex="1">
          <mxGeometry x="704" y="861" width="48" height="64" as="geometry" />
        </mxCell>
        <mxCell id="N7lQgFKjf1Fr5pA0-zuc-26" style="edgeStyle=orthogonalEdgeStyle;rounded=0;orthogonalLoop=1;jettySize=auto;html=1;entryX=0.023;entryY=0.581;entryDx=0;entryDy=0;entryPerimeter=0;fontSize=14;" parent="1" source="N7lQgFKjf1Fr5pA0-zuc-25" target="N7lQgFKjf1Fr5pA0-zuc-22" edge="1">
          <mxGeometry relative="1" as="geometry" />
        </mxCell>
        <mxCell id="N7lQgFKjf1Fr5pA0-zuc-27" value="&lt;span style=&quot;color: rgba(0, 0, 0, 0); font-family: monospace; font-size: 0px; text-align: start; background-color: rgb(248, 249, 250);&quot;&gt;%3CmxGraphModel%3E%3Croot%3E%3CmxCell%20id%3D%220%22%2F%3E%3CmxCell%20id%3D%221%22%20parent%3D%220%22%2F%3E%3CmxCell%20id%3D%222%22%20value%3D%22Copy%26lt%3Bbr%26gt%3B%26amp%3Bnbsp%3Bdata%20to%20SQL%22%20style%3D%22edgeLabel%3Bhtml%3D1%3Balign%3Dcenter%3BverticalAlign%3Dmiddle%3Bresizable%3D0%3Bpoints%3D%5B%5D%3BfontSize%3D14%3B%22%20vertex%3D%221%22%20connectable%3D%220%22%20parent%3D%221%22%3E%3CmxGeometry%20x%3D%22614.7142857142858%22%20y%3D%22565.2%22%20as%3D%22geometry%22%2F%3E%3C%2FmxCell%3E%3C%2Froot%3E%3C%2FmxGraphModel%3E&lt;/span&gt;&lt;span style=&quot;color: rgba(0, 0, 0, 0); font-family: monospace; font-size: 0px; text-align: start; background-color: rgb(248, 249, 250);&quot;&gt;%3CmxGraphModel%3E%3Croot%3E%3CmxCell%20id%3D%220%22%2F%3E%3CmxCell%20id%3D%221%22%20parent%3D%220%22%2F%3E%3CmxCell%20id%3D%222%22%20value%3D%22Copy%26lt%3Bbr%26gt%3B%26amp%3Bnbsp%3Bdata%20to%20SQL%22%20style%3D%22edgeLabel%3Bhtml%3D1%3Balign%3Dcenter%3BverticalAlign%3Dmiddle%3Bresizable%3D0%3Bpoints%3D%5B%5D%3BfontSize%3D14%3B%22%20vertex%3D%221%22%20connectable%3D%220%22%20parent%3D%221%22%3E%3CmxGeometry%20x%3D%22614.7142857142858%22%20y%3D%22565.2%22%20as%3D%22geometry%22%2F%3E%3C%2FmxCell%3E%3C%2Froot%3E%3C%2FmxGraphModel%3&lt;/span&gt;" style="edgeLabel;html=1;align=center;verticalAlign=middle;resizable=0;points=[];fontSize=14;" parent="N7lQgFKjf1Fr5pA0-zuc-26" vertex="1" connectable="0">
          <mxGeometry x="0.1898" y="-1" relative="1" as="geometry">
            <mxPoint as="offset" />
          </mxGeometry>
        </mxCell>
        <mxCell id="N7lQgFKjf1Fr5pA0-zuc-28" value="Copy data to &lt;br&gt;SQL" style="edgeLabel;html=1;align=center;verticalAlign=middle;resizable=0;points=[];fontSize=14;" parent="N7lQgFKjf1Fr5pA0-zuc-26" vertex="1" connectable="0">
          <mxGeometry x="-0.2212" y="-3" relative="1" as="geometry">
            <mxPoint x="25" as="offset" />
          </mxGeometry>
        </mxCell>
        <mxCell id="N7lQgFKjf1Fr5pA0-zuc-25" value="ADF Pipeline" style="aspect=fixed;html=1;points=[];align=center;image;fontSize=12;image=img/lib/azure2/databases/Data_Factory.svg;labelBorderColor=none;strokeColor=#82B366;strokeWidth=4;" parent="1" vertex="1">
          <mxGeometry x="430" y="863.4" width="67.6" height="67.6" as="geometry" />
        </mxCell>
        <mxCell id="N7lQgFKjf1Fr5pA0-zuc-35" style="edgeStyle=orthogonalEdgeStyle;rounded=0;orthogonalLoop=1;jettySize=auto;html=1;fontSize=14;" parent="1" source="N7lQgFKjf1Fr5pA0-zuc-32" edge="1">
          <mxGeometry relative="1" as="geometry">
            <mxPoint x="172" y="910" as="targetPoint" />
            <Array as="points">
              <mxPoint x="62" y="180" />
              <mxPoint x="62" y="910" />
              <mxPoint x="112" y="910" />
            </Array>
          </mxGeometry>
        </mxCell>
        <mxCell id="N7lQgFKjf1Fr5pA0-zuc-36" value="Push the&amp;nbsp;&lt;br&gt;data into cloud&lt;br&gt;Storage" style="edgeLabel;html=1;align=center;verticalAlign=middle;resizable=0;points=[];fontSize=14;" parent="N7lQgFKjf1Fr5pA0-zuc-35" vertex="1" connectable="0">
          <mxGeometry x="0.2529" y="-3" relative="1" as="geometry">
            <mxPoint x="23" y="78" as="offset" />
          </mxGeometry>
        </mxCell>
        <mxCell id="N7lQgFKjf1Fr5pA0-zuc-32" value="Automate flow" style="aspect=fixed;html=1;points=[];align=center;image;fontSize=12;image=img/lib/azure2/general/Workflow.svg;labelBorderColor=none;strokeColor=#82B366;strokeWidth=4;" parent="1" vertex="1">
          <mxGeometry x="370.2" y="140" width="77.72" height="80" as="geometry" />
        </mxCell>
        <mxCell id="kjZ1DMuhEnThYI0eOgYI-1" value="" style="shape=image;verticalLabelPosition=bottom;labelBackgroundColor=default;verticalAlign=top;aspect=fixed;imageAspect=0;image=data:image/png,iVBORw0KGgoAAAANSUhEUgAAAJ8AAAA+CAYAAAA1W8mrAAAAAXNSR0IArs4c6QAAAARnQU1BAACxjwv8YQUAAAAJcEhZcwAAFxEAABcRAcom8z8AABZmSURBVHhe7V1plFzFdR5pNPva08v0sBgbAyaYPSDAwDFgg4PtBOOAnGAwOMaYYIiNkQ0xYTMYhHMgBAgERyxiESABwsIRIECAltGMVkCKDyHnBGwr2GYLI81oVunmflWvuu+rru73+vUbaXDmx3deLbfuu1X3e7eW10vV5hUZmsTERZ+j7I8FVX0r0tzBNGf0NSzKlbdRaXsXbJ07uk9hEHSPHWGDjZ1lE0e+vHKTDoNy5W1U2t4FW+eO7lMYBN1jR9hgY2fZlIt84wNMG67yUii3TRh5KTMe+m2M9z2iyE88m5h8PP92a+PMNQ8tZNfjurlb1xnItsHy5bU1dRrutrjaNvWJtnm5vEwYedzPf4+8jF9Olmm9rrogm0pByufTfhl3GeSDbPLXB9tk68vLu9pqOW23SSvyuWAWha46F6S8SZdqDwP6gZWTmGjYwn4BXH4DpH+lj4v52yWPqybfcr+wL2/X2WVe2iiVaXMzdGhkdSfRK4wNjNc6afv6Thpa1UkDPRkaEB03aftaDFLOlpV5l1wYeZnG1S6XeVkur646mcbVJWvq7LSUt9vJOrtcXmW5LNvam6Fh6SuG8ZUiJPxt/M9X6fcCGFkjz5DcyEc+IWALF7uBLLdlYOi2dZpo6NSvnkjREzcn6MbvtdAFX2ui005soJOOqqdjD62nzxzEOFgA+VJldp2BLLflXW1seZkOI29DytpwyQMuOZk2eTstZWS9nTdyEraMh6O57LOH1dPJx9TTGSc30g/OaqZbL22lZ+/soLcWpWlkjfYnAont+wKOSD4VQVWOmTEBUyl5T8qKOUm6/NwWOurAOmpvnUZVVVMn8ZHCFO9aTbuka+iLxzTQLT9spdcXpJSPx9YyCR0cCItYyTfKTwaeioX/nKAvHdtAdbXVoiNIG5iySUx8FPosnZhG3/5qE62dm1TT81ZeOrn4EIQc+WwGI2/KirFb1uNJeOMXKfrrkxuEodU0darf+ARHwCMPqGM5DutnNtPV57fQtRdMYqLgivOa6UJeFp16QgMdsHct1dflZ6wpU6ppivKnzre3VNNV32mmD5dx4OGg4+KGSUuY8lgiH9Z2y+5N0r6fqPUM06TTxGOjOX8ir+9mX92mQjbWg9uxHnzVA68jJjFBAH9wNMOU+sHSDK1+KEnXX9RCB+5jfDvV51vglOMaaNOzvCa0CBgE/W6XEzkgL8tMXsKrgwJMta/OS9Ind9fG4emQxu23Zy0tuCmhd7vcOVyxAdkidclrqXKkbTkJV30x+WK6gsqL1bnKTLld75I35a66cspNPki+WDsPCBA4idjGJMSO94OXM3Tj91s52ulImPcxMIW+wpHyfZYxU7BTv1VWlSuMgAE2sJ+V/NUXMNVOyRHPhObp+9fRG0/y4pSNh6xLxyQ+Ghjq5aXVxiwtvCVBmUSNg4BT6eZLWmk7k1UFFocOG5p8PGcryLQNUyeuYxzFlt/ToRagtjGtzdPo6dsTHO2y7vYuoM5AlkkZWe6St2VkuphssfZAGHmTx9VA1ktIWXN1yYfRUQpSptg97Dp5leUeBphUmJav+dsW5W97ljv2kDp6e3Gahjj6+fTZaS/P5NPbZT9QZspd9RyWGQjJ91/bTtOmacJJQw7br47eeSFDgz2yva3LdQ+kbTm73FVfiC0+uTBtCu+Bfvpl/MjfI4x+IKychL9NoU12vd+moD64bNJtCsvh86V3J6mlCQHH7/M9dqmh9Q8n9Tmg1c5lU9XmZZyJACjbtiZLs69oo+rqQvLh8PjdJbwN73a3n0TlgA8GeHwHV2pgrPtXcLlD1g8mgbM8GGOrs9QzJ0kpNdv5fb5bpoZWPcDkW4XZzt1eIjz5lvrz6CDId/eV7U7yHXNIPUe+EuSz9DkRJBNGRxDK1SHlXW3tsig2BtxjpDfLO9Isr6+0k3+/OENvP5uh918UdewbENFuW4Cw9nlyIF/3fSlKtheSb/fOGlr9QGocyGfBRL7I5JtEWehjYCxpXZb+68k03fajNppxYiMd+id1tOdutfTxXWrVycJJRzXQj/+mhZbOTtIwE3E0JBHCIpB8D06S748OakrlMb/x71qpK603eKWAdfiMkxrpPxekYyXgBCOfe82nyZfxyGevMZCPvu5wo1x9O0I+nntg+hzijdsV5+pdJiB3mi7AHzj+wgcGfr0ordaEcdikyZcsQb6y1nzGoPKA3cq2NZ0hyOduP4nwGO7t5Kk2RfvsoQ/yzTgHQROwmu69uk35Su1gHfrLAY7XgskHcrnbS1RtXsoJAAUmbcNRt4XLSpLvYCbf80w+HDiadq57lHnfHIrpiqPcoFgbu8yg3HuElB9h8m14NKXWdVHIh/XhNiYNfFbsHjm4yoX8GBOr+14mX5uDfFlsOJh8bG9R/YBXp8lnlLsauMo5Hxj5DPlckc/S5cvLcpe8rHOVRZG362S9qyxsuaxzlYUsH+Epd+O8lNpYRCHfv1wWgnymrFQ5oyT51G7XinxSl9TH6XzkKxMq8nGHyop8k4iE2MlXAUJHPkdbGzuEfH2O9h81ROlDXP2Ok3yV2hQv+fA0RMDkhmPHAc7cOL8C8v39BN1w9OHkWoELFEzelOl0/onReR35Shy15CKf1AcYHUZfXqc/7cpLmKc4n89f7bTMy2sRee7bgHe8McoDCQxzGn3RU5dLh74W2mRg5yWkDimn0/FEvizbbtsg/ZovM3BxI1rkk3rydTztmgqN/A0DwB3BmU/RQ+Yi5Autf5wh7UAawCEuXkvhLQIc9eZTaXr1kRStn5tSbxU+eDFfD3LG3Zdi+kZ6srQhNvL5EdQHWY/02Kosky9VgnwpJl+2oK0LBeQLC/VuN5B8OlpAPsiQOFDuPYw8rsPsYDj5+Ts76MKvNdP0T9dTV6qGWpqqqalhGqUTNXTAXrV05smN9PD1CfrwZd1/qWe8ALs2zkuPC/nKRTnkC0LVZh7EPgauYQH5Ldx4Gxty9xUlyPcck4+jCeTlPey8jaB6F8ptY+SB4ZVZ2rQoQ9/8iybPfvOtLUD3LZ/XdccfXq8GehQD7el06XfVFUOxNiNs38ZHmXy7RiTfpUw+vHVgn4W2CQThqy2P/nbfU5x8q+5n8vHDIts4YcgXBYZ8s0OQz9VewetgaJQrb1CiHabafo4IZ32xie0GsfL9KAbt1Cl04N519ObCNA2tdOuOBWy7inyVkA+Rj30FnxmdBfexUURmLIB8q4uRz9bH+Z1LvgkADNT6h1K0a8b/0fAgoL94vzr3unYdVRy640JckS9HvgoQW+Rj7FDylTsNxQ3X/TGYPfclabfO8smHT47cc1Vl5AszJjuafKVsikK+YvpCbzjUohqNvLzZcMwOseGQC3ufPsdV3iMILn0uFNxDAB836p2TVANXrmNrmHz3XdOudv1Gn88mry8YA7VLXu+Bd8sKSK/NqjWnb0q0oKZdbDgqmXax4WBdUcfJAONVasOxyrHhKKavyrDSDBSuYQBZ7HyKRT787scfOPINeJGvoL2jTKJcm4L0AVLGpDFQFZHvaiYfj4PRKwHSgVzvvdCpdtG3/rCNLj27hS44vZku/noLzbqolZ74xwT9N68bickJkrn0gJyVRj7YqJzu0G/DNU4GiHwrAiIfTg5km2L3LGu3K+XMtBu02wX5TLty7hNW1qDvJXe5C1I/BrMS8s1h8tnTLmwZ6s7Sh3y9+eI2tTHB+hD6Xdg1XUMXzWimNxak1YLe7nts0y5ss3QHwZYP2nCsmlPmmk86w6TtmxYgIPLJNZ9LV6l7mDpTb+ddsOtl3tXOlFVKPkQ+ST7oRcTD9yrwMXfo1NAbFKlDf79Zjxew78dref2ZolEvchh9iHwbYlrz2WOBvF0mIe3ANcqaT7aXKNhw4KkNFUXKIJ/dNvQ9PISRVzIyLfKlAEf38oYD7yXLdayLfMB2zt/GUyz0yXEpBRMZT/98o7J9gNfUps+xkY91GZ2AGSeTDwJkMV7lRL5S+qs2o/IlFlYwabvMBjqSpW38FJQk3+IsbV1m9Gj0eTB68jD5/D0Ky2WZlPPXaf24j6z3y5i8Jl8qOvmuSqhxMDr7eVzGerro4jOalb6gj7tLQP6IA+pp06JOGlyeH6eR7i7a+Egl5OMHpLdLkU+OQd4PplymC/OQV+S7O4B8K7s8eXkPozOPKu0gzVAXXHVKGXcE83/JDcdi/QSX0g/Y9Uq/VSZh12FQt7KzhnmdhfURroMccdUO0pI1MOV4SiuKfFfxhsMjH/T1sy1w0MyzopHv6IPq6X8WZWgIyxVPJ/qzoSLy8YYDNiry5fWGgS2Pvq0IIB8itWxTDCryIYGrC646lMHhpSKfId9WM32UgF2PfKk2pn4Iu0neJY7xgLz7XIbeeDzNTkrR6/PT9LtnMuw0vdsEIU07qQNXHfkqIx/GwegD+WBPHOQzto4w+SqLfDztso25abcE7Ho7Hy7y6fF2QepTRy0oUJDpYmWmA3wtFfn0tOvtdh3tC4ByCVnupXPGcxnWVb/5ZYbuuKyNTvlsA32KF+t4+d/WMk191gwv4U86soFmXdhKv2IyQt6so6TOuCKf0Yloi0V5peQbxPmoZyMiX6XkU0ctRcbVCdQ7ZGKLfKy7NPk4nzMYVwPOx0I+oS+XlmWWPO6pnMsDMH9Wgvb1vs3lh76/RGfHNLrlkla1+en3dnxGZ2zTrqczdvKxXrXhiIN86LvX74IxduVlmYd4yeeqYMgQadepcm4cinwm2qCNbC/yxe5hA3II6c/c2kEtjeh8sHNRDzngTo6So96UYHTGvebD1AYHzTyzQvJ5Dy30xrnmM/2WCDv+QJhptxT55L283W75yK35/sFNvmOZfO9izcdP2+YXC9tHAdZTwyuydOGMaI7FNAxbBmCTpxNkjEy+mmqa4635pI1qzVcB+d4erzUf9FXoizEer5X3pCjl+Bg93o+vuq/0mk8iOvkY27lDePJd5DvigDp677lOGsRu1+uw6rwLIQcEjh1clqXzTo3m2OMPq6f/xftmbwcOVEQ+jnzjTT6M2UQi3zYV+ZLU1lxIvo9x5FuLd7tsr6utjSplTETgKXj+9qT3U6l+Q7D4756dIsJLd0fbUFjiRz+XDS7N0vlfjebYzx3O5MPBNxPE6B/lSFoR+a5k8uFJFzaO8eBXRD7eSA0hOns6R5Yz+R6ugHz40jjbuMUeV5MPCbSnNV1068w21a8q0TfYdfh+dfSbhXhwwvk8cuQDEEE+4EjyBZ7O8OFKvC6CIcowNubLxzSo6IfjkKJRzwV8Scfx06r4j4/Bngydfxo++BmBfNOZfPjd4JV5/fhN6d4HOtR6pVzHKvL9hB27lm02NrLeMdY58xsRyXcIkw+/7tmb7ze+DbbxsUq+vdaqbPT9DjaAL/K4xt8BLFVoXRet5jXdXrv7xwokRP6Kb7WogIQlmUuHjYrIByAML7kjSR1qAZo3yBDwxCPqaR2HYpy3Ee+4MA2XNA51+Lplb7oA/avTNLiWyTcjIvmOZPJ1p2nrmrzO0Vcz1PtwBeS7jsn3Wt7e/lVpGmOdM8+JZuPRhzL5lqRoaF3expH1Gdr4ZDI6+S5n8rGNW9g2o1MBBHT5wAOWEEM8M8B38PMTP0tw9PWPk/HzkfvX02+fSquzVbQNE2w0+RwhMSxwE6z9Hr0+4e2A8gNuDMO0/N3Tm+mlf02qSAkS0touFRExLdvA/3/19fDgWIBjB9dUSL4VTD4msdE5+koM5GOy5Wxkp1ZEPkS+F5h8a/M2jqxj8i2okHxs0xYQztMJ4AeIXOOv/ML+AeE28RLgsVkJdZY61fOnX/8UOnTfOnptblrJuzii4OAZkw8NGKrSpK0y8T4uV6cU6DTe89LqLnr5rhQdxRsN8yUbsybQRmqj9/9kHZ15chNdc14r/dvl7fTIdQlF3HmMR3+aoMdvTNBbT6doQBDE4P8F+UzkG2fyDfBYvvJoUo25GX9g7rUJtUa87JwW+spnG2mPLj0uGlKvLvv6nzXRm7/IEPV25figuKF44l1zMHzS5bzhgFA8gAEf8Brvn77fRvvl/hAmb7g0uhhwfLHwtgSNMSnMQBlMki8e8uEKnVeen/+9v0KU+gZfNZ1weAMHig4aWdFFo92SeOGhybfEg0ybvF1fSp6BoxBavQv94elOevCaBM34fKP35RxpfHHgexGT5JsI5POjmvXh84YX/GUzPXtrkjcgvGxa1UX9iGjG/zY/SoHl/JHPK4wDmoS8bljZRb/msPz0LUm64YJW+uaXm+jE6Q10yKfq1NEBfsEc/2gIdHbU8E6qlhb/PEGjvMg2g29gyPed06M59gTe/LjI1zO3I9IXiEC++651k++Ss6PZ+Bms+Rzk2/BEkj4R8ajl9h8Xkm+Ydd40s1WNOb4cb3yAI6d9PlZL0/erV6cV3z2tmW6b2U7Lfp6id5/Fep1JxzPcAC+1KuVLlY+N44AtfJPhZWxwD4PJCMOR//D5LP1uUSf9dmGnIifw1pMZdU70/lI9QGbwDQz5zotIvuOn19OH2O1a5Fv9SIca+HIdiwX4nJ8y+bDbNTay3chHJd9RB2vyDdqRj3e7e0T8cUjXmg/pd5ak1Zib8Qc2PdVJ7/CstYV9N8pTqiIb+207BxGcsaLc5ecoyEc+R6WvTsrY8rZMiXqQEaF6K3cEnRliIg4tZ/B1GFcG/pvNDJIEBgwR8d5rW72BDecII3v5t5uVI6UTQMT3lqXUlKzOKkOQxfy9VxdH7VcfT6qjEGknHD3/pnYlW56NU+h7ZzbxA6YfNGkjIvYpJ2gbIevSYQP3TnVMo5UPJgpsBPCXZGrM4YMctF8Q2dSUavvUXE3aVS/LJWQ5X2PdcMQGdBrnfQ7ggwr9PEBXfqvV+z9fszDWDgR59KGnHnyDc3i6f4enjcEVlm7eeeFlOV4L4azKXmhDn9Lp6dflU9T0NH9Wh2qrzi0F8MkZfLh11oVt1FiP46dwNmJ9vOnf9ZePpD4A70v/45E0HcdrQtnG6HPZiE/z3M/rbnx4wrZRwZBrJ2Hcp9240fcCR82Xu2iMd1hL7kjR2V9qUgeftbxLlk7B+2ZsdE49rpEeu6GDn2Y93aN9gV4ug753numkW37Qpj4U0aH+GV3q1D8YdNDedXTZN1rp9XkZtZRQ05Ctk/MD7FhMVcvvStG5pzTRXrxZ8P/5tV7EY73157y2eugnCY42xW1EGWx8/7lOuuNH7XT8n9ZTqp2XCop0eRsb2cZP71lHl5zRTBseStN22AhnO3TubPh3u+qdn8wHwZP36QjKc5sgeR+EPK5eGgOKgaVevXbsuTtFC3jr/wA/6fNvSNDSu5JqDYP3rFi3gAw+vb576n5guoHsVp5yXp+XpsW3Jenh6xKKGL+8uYNeeTCt1qqQwTvhfHs3YOM2z8bf8zqq994UPfmzDnUKgDO1l+9M0pu85oIuZaNcxMurhz6GsRHXNx7LqHfrOCt9iHU+dVOHepuE4y5lIyKoaJ8bP6U3hK998iFhZIu1EeUc+WDERxd42T3I09w2kIydrN6e8BUv0ocwReOg09GuFAZ4KsbLfOLpSukDOA2SqA8lONqUgrFRPQjGRsZ2ZSOvrSLY2O/ZuF3ayLqj2rgzULX5BU5IoMIuC0K5bcZbHtgR9ygXE9GmchGbTZ30f8O3Jwknr1HTAAAAAElFTkSuQmCC;" parent="1" vertex="1">
          <mxGeometry x="677" y="696.12" width="91" height="35.48" as="geometry" />
        </mxCell>
        <mxCell id="vdBVsKd3CKI8DVWJ6K-6-1" value="&lt;a href=&quot;https://make.powerautomate.com/environments/Default-5b268d57-2a6f-4e04-b0de-6938583d5ebc/flows/shared/e422658d-f8b9-4a61-a71a-03d8d4d3ddcc/details&quot;&gt;Auomate URL&lt;/a&gt;" style="text;html=1;align=center;verticalAlign=middle;resizable=0;points=[];autosize=1;strokeColor=none;fillColor=none;" vertex="1" parent="1">
          <mxGeometry x="300.6" y="140" width="93" height="26" as="geometry" />
        </mxCell>
        <mxCell id="vdBVsKd3CKI8DVWJ6K-6-2" value="&lt;a href=&quot;https://abbott.sharepoint.com/:f:/r/teams/ansc-home/mfg/MBR/Metrics/NA_SOP/Volume%20Repository/z.%20Data%20for%20Power%20BI%20Reporting?csf=1&amp;amp;web=1&amp;amp;e=ZmJVew&amp;amp;OR=Teams-HL&amp;amp;CT=1670597728247&amp;amp;clickparams=eyJBcHBOYW1lIjoiVGVhbXMtRGVza3RvcCIsIkFwcFZlcnNpb24iOiIyNy8yMjExMzAwNDEwMCIsIkhhc0ZlZGVyYXRlZFVzZXIiOmZhbHNlfQ%3D%3D&quot;&gt;Sharepoint location URL&lt;/a&gt;" style="text;html=1;align=center;verticalAlign=middle;resizable=0;points=[];autosize=1;strokeColor=none;fillColor=none;" vertex="1" parent="1">
          <mxGeometry x="350" y="464" width="148" height="26" as="geometry" />
        </mxCell>
        <mxCell id="vdBVsKd3CKI8DVWJ6K-6-3" value="&lt;a href=&quot;https://adb-1889669926157161.1.azuredatabricks.net/login.html?o=1889669926157161#notebook/103557688012977/command/1205496698599625&quot;&gt;DataBricks URL&lt;/a&gt;" style="text;html=1;align=center;verticalAlign=middle;resizable=0;points=[];autosize=1;strokeColor=none;fillColor=none;" vertex="1" parent="1">
          <mxGeometry x="300.6" y="675" width="103" height="26" as="geometry" />
        </mxCell>
        <mxCell id="vdBVsKd3CKI8DVWJ6K-6-4" value="&lt;a href=&quot;https://adf.azure.com/en/authoring/pipeline/Finance%20Volumne%20Workstream?factory=%2Fsubscriptions%2F5343f482-d242-4c13-b390-60f1544b11c2%2FresourceGroups%2FRG-AN-MARKETING-ANALYTICS-DEV%2Fproviders%2FMicrosoft.DataFactory%2Ffactories%2FANMarketingADF&quot;&gt;ADF Pipeline URL&lt;/a&gt;" style="text;html=1;align=center;verticalAlign=middle;resizable=0;points=[];autosize=1;strokeColor=none;fillColor=none;" vertex="1" parent="1">
          <mxGeometry x="393.6" y="835" width="115" height="26" as="geometry" />
        </mxCell>
        <mxCell id="vdBVsKd3CKI8DVWJ6K-6-5" value="&lt;a href=&quot;https://portal.azure.com/#view/Microsoft_Azure_Storage/ContainerMenuBlade/~/overview/storageAccountId/%2Fsubscriptions%2F5343f482-d242-4c13-b390-60f1544b11c2%2FresourceGroups%2FRG-AN-MARKETING-ANALYTICS-DEV%2Fproviders%2FMicrosoft.Storage%2FstorageAccounts%2Fanmarketinganalyticsdev/path/finance-volume-workstream/etag/%220x8DAD788044C1D1A%22/defaultEncryptionScope/%24account-encryption-key/denyEncryptionScopeOverride~/false/defaultId//publicAccessVal/None&quot;&gt;Storage account URL&lt;/a&gt;" style="text;html=1;align=center;verticalAlign=middle;resizable=0;points=[];autosize=1;strokeColor=none;fillColor=none;" vertex="1" parent="1">
          <mxGeometry x="70" y="835" width="133" height="26" as="geometry" />
        </mxCell>
        <mxCell id="vdBVsKd3CKI8DVWJ6K-6-6" value="&lt;span style=&quot;color: rgb(36, 36, 36); font-family: -apple-system, BlinkMacSystemFont, &amp;quot;Segoe UI&amp;quot;, system-ui, &amp;quot;Apple Color Emoji&amp;quot;, &amp;quot;Segoe UI Emoji&amp;quot;, &amp;quot;Segoe UI Web&amp;quot;, sans-serif; font-size: 14px; text-align: start; background-color: rgb(232, 235, 250);&quot;&gt;dly_prd_rprt.Processed_&lt;br&gt;Daily_Prod_combined_with_LBE&lt;/span&gt;" style="text;html=1;align=center;verticalAlign=middle;resizable=0;points=[];autosize=1;strokeColor=none;fillColor=none;" vertex="1" parent="1">
          <mxGeometry x="617" y="804" width="211" height="47" as="geometry" />
        </mxCell>
      </root>
    </mxGraphModel>
  </diagram>
</mxfile>
